HIERARCHY
ROOT Hips
{
  OFFSET 0 89.5177 0.535
  CHANNELS 6 Xposition Yposition Zposition Zrotation Xrotation Yrotation
  JOINT Spine
  {
    OFFSET 12.0259 -0.162855 1.69034e-005
    CHANNELS 3 Zrotation Xrotation Yrotation
    JOINT Spine1
    {
      OFFSET 15.3169 -0.0121922 0
      CHANNELS 3 Zrotation Xrotation Yrotation
      JOINT Spine2
      {
        OFFSET 15.3176 -0.0121908 0
        CHANNELS 3 Zrotation Xrotation Yrotation
        JOINT Neck
        {
          OFFSET 19.9142 1.56338 0
          CHANNELS 3 Zrotation Xrotation Yrotation
          JOINT Head
          {
            OFFSET 6.92651 0 0
            CHANNELS 3 Zrotation Xrotation Yrotation
            End Site
            {
              OFFSET 20.7666 0 0
            }
          }
          JOINT LeftShoulder
          {
            OFFSET -6.20654 0.708824 7.28219
            CHANNELS 3 Zrotation Xrotation Yrotation
            JOINT LeftArm
            {
              OFFSET 14.108 0 -1.52588e-005
              CHANNELS 3 Zrotation Xrotation Yrotation
              JOINT LeftForeArm
              {
                OFFSET 28.5802 0 0
                CHANNELS 3 Zrotation Xrotation Yrotation
                JOINT LeftHand
                {
                  OFFSET 27.092 0 0
                  CHANNELS 3 Zrotation Xrotation Yrotation
                  End Site
                  {
                    OFFSET 9.55928 -0.186424 0.145352
                  }
                }
              }
            }
          }
          JOINT RightShoulder
          {
            OFFSET -6.20654 0.708866 -7.28218
            CHANNELS 3 Zrotation Xrotation Yrotation
            JOINT RightArm
            {
              OFFSET 14.108 0 1.52588e-005
              CHANNELS 3 Zrotation Xrotation Yrotation
              JOINT RightForeArm
              {
                OFFSET 28.5802 0 0
                CHANNELS 3 Zrotation Xrotation Yrotation
                JOINT RightHand
                {
                  OFFSET 27.092 0 0
                  CHANNELS 3 Zrotation Xrotation Yrotation
                  End Site
                  {
                    OFFSET 9.55929 -0.186417 -0.145354
                  }
                }
              }
            }
          }
        }
      }
    }
  }
  JOINT LeftUpLeg
  {
    OFFSET 0.005 -0.535 8.837
    CHANNELS 3 Zrotation Xrotation Yrotation
    JOINT LeftLeg
    {
      OFFSET 39.9035 0 0
      CHANNELS 3 Zrotation Xrotation Yrotation
      JOINT LeftFoot
      {
        OFFSET 39.6689 0 0
        CHANNELS 3 Zrotation Xrotation Yrotation
        JOINT LeftToe
        {
          OFFSET 10.1624 13.6296 0
          CHANNELS 3 Zrotation Xrotation Yrotation
          End Site
          {
            OFFSET 8.38147 0 0
          }
        }
      }
    }
  }
  JOINT RightUpLeg
  {
    OFFSET 0.005 -0.535 -8.837
    CHANNELS 3 Zrotation Xrotation Yrotation
    JOINT RightLeg
    {
      OFFSET 39.9035 0 0
      CHANNELS 3 Zrotation Xrotation Yrotation
      JOINT RightFoot
      {
        OFFSET 39.6689 0 0
        CHANNELS 3 Zrotation Xrotation Yrotation
        JOINT RightToe
        {
          OFFSET 10.1624 13.6296 0
          CHANNELS 3 Zrotation Xrotation Yrotation
          End Site
          {
            OFFSET 8.38147 0 0
          }
        }
      }
    }
  }
}
MOTION
Frames:	9
Frame Time:	0.0333333
260.024 89.4841 42.9403 169.6 -83.4638 78.3937 -0.946954 -0.17969 -0.782627 -1.89628 -0.34594 -1.56795 -1.89628 -0.34594 -1.56796 -8.30728e-012 -9.0191e-006 -5.27751e-005 10 -1.69084e-006 2.312e-005 178.651 -16.4572 -94.751 -10.4201 -63.5441 6.15964 -3.57895 -3.18055e-015 -4.96962e-017 -39.2498 -19.0947 -20.393 178.314 7.8291 102.195 80.328 66.9511 -80.2666 -4.90539 7.95139e-016 -0 -35.2392 10.0551 13.0892 -11.1833 5.16327 -177.762 -20.4357 -2.38542e-015 -3.97569e-016 16.5391 3.1786 -6.32328 90 -1.47846e-015 1.19271e-015 -9.79686 -6.39768 -178.382 -18.6886 -1.59028e-015 7.95139e-016 14.397 -0.888901 1.72522 90 5.90142e-016 7.95139e-016 
260.021 89.4743 42.9355 169.723 -83.5372 78.5121 -0.918426 -0.172664 -0.784673 -1.83914 -0.332246 -1.57184 -1.83914 -0.332246 -1.57185 -8.30768e-012 -9.0191e-006 -5.27751e-005 9.95254 -0.0902182 0.0831391 178.657 -16.449 -94.7333 -10.3718 -63.3925 6.12275 -3.60026 0 -4.47266e-016 -39.2394 -19.0701 -20.3455 178.311 7.80353 102.252 80.4227 66.9121 -80.2913 -4.91247 7.95139e-016 -0 -35.2029 10.0594 13.073 -11.16 5.18887 -177.746 -20.54 7.95139e-016 3.97569e-016 16.5897 3.18426 -6.33479 90 -1.98785e-015 -0 -9.78367 -6.36753 -178.378 -18.7983 1.59028e-015 -3.97569e-016 14.4395 -0.883002 1.71346 90 -8.69683e-017 -7.95139e-016 
260.015 89.4624 42.9498 169.517 -83.5932 78.3038 -0.893521 -0.171061 -0.791607 -1.78936 -0.331018 -1.58563 -1.78936 -0.331018 -1.58564 -8.30808e-012 -9.0191e-006 -5.27751e-005 10.0827 -0.144185 0.133811 178.652 -16.4584 -94.7495 -10.3638 -63.4177 6.13618 -3.55447 0 -0 -39.2762 -19.0691 -20.3684 178.316 7.76624 102.276 80.3086 66.8774 -80.128 -4.8383 0 1.59028e-015 -35.1922 10.2068 13.2508 -11.1746 5.15428 -177.754 -20.6622 7.95139e-016 3.97569e-016 16.6286 3.16326 -6.29218 90 -1.52816e-015 7.95139e-016 -9.80006 -6.36668 -178.385 -18.9321 0 -1.98785e-016 14.4784 -0.874456 1.69622 90 -1.80149e-016 -0 
260.016 89.4563 42.9673 169.167 -83.6439 77.9523 -0.876101 -0.170219 -0.80145 -1.75452 -0.329153 -1.60526 -1.75452 -0.329153 -1.60527 -8.30748e-012 -9.0191e-006 -5.27751e-005 10.4135 -0.0924215 0.239194 178.642 -16.4301 -94.7905 -10.3279 -63.3313 6.19259 -3.52272 -3.18055e-015 9.93923e-017 -39.3476 -19.1543 -20.5605 178.325 7.7262 102.269 80.2649 66.8675 -80.0416 -4.73155 -3.97569e-016 -0 -35.1965 10.2532 13.3794 -11.1797 5.13627 -177.745 -20.762 2.38542e-015 7.95139e-016 16.6674 3.17694 -6.31989 90 1.39149e-015 7.95139e-016 -9.7836 -6.39802 -178.39 -18.9947 -7.95139e-016 -5.96354e-016 14.5071 -0.872384 1.69212 90 7.33019e-016 7.95139e-016 
260.023 89.4587 42.995 168.999 -83.6477 77.7785 -0.870308 -0.169692 -0.805746 -1.74291 -0.327174 -1.61383 -1.74291 -0.327174 -1.61384 -8.30768e-012 -9.0191e-006 -5.27751e-005 10.7575 -0.0602813 0.27966 178.646 -16.4366 -94.7752 -10.4103 -63.3236 6.17317 -3.4713 6.36111e-015 9.93923e-017 -39.363 -19.1916 -20.5804 178.327 7.71051 102.279 80.2081 66.8338 -80.0087 -4.67316 -3.97569e-016 -1.59028e-015 -35.2166 10.3329 13.5136 -11.1919 5.11063 -177.744 -20.7533 7.95139e-016 -0 16.6056 3.16397 -6.29349 90 1.00635e-015 3.97569e-016 -9.78782 -6.41487 -178.382 -18.9855 0 -1.98785e-016 14.4999 -0.873054 1.69332 90 -8.57259e-016 -0 
260.035 89.4626 43.0313 169.105 -83.6334 77.8677 -0.873212 -0.169033 -0.807288 -1.74478 -0.325261 -1.61689 -1.74478 -0.325261 -1.6169 -8.30748e-012 -9.0191e-006 -5.27751e-005 11.0846 0.0398932 0.312986 178.647 -16.4531 -94.7677 -10.4935 -63.3194 6.15801 -3.43122 3.18055e-015 4.47266e-016 -39.4295 -19.2244 -20.6404 178.326 7.72291 102.275 80.117 66.8454 -79.9954 -4.60072 0 -1.59028e-015 -35.2117 10.31 13.4658 -11.2272 5.16125 -177.704 -20.7502 -2.38542e-015 -3.97569e-016 16.6822 3.20425 -6.3751 90 0 -7.95139e-016 -9.80734 -6.43167 -178.36 -18.9483 7.95139e-016 1.98785e-016 14.4794 -0.89052 1.72847 90 -8.82107e-016 -7.95139e-016 
260.041 89.4664 43.0734 169.233 -83.613 78.0016 -0.871058 -0.168292 -0.808533 -1.7467 -0.323729 -1.62524 -1.7467 -0.323729 -1.62525 -8.30708e-012 -9.0191e-006 -5.27751e-005 11.2926 0.10635 0.329591 178.641 -16.4855 -94.778 -10.4907 -63.3241 6.2116 -3.43964 3.18055e-015 1.98785e-016 -39.4952 -19.2772 -20.6831 178.325 7.7251 102.277 79.8531 66.8319 -79.8112 -4.60802 1.19271e-015 -3.18055e-015 -35.1386 10.3142 13.4274 -11.2495 5.13185 -177.724 -20.6859 0 7.95139e-016 16.6069 3.16024 -6.28607 90 -1.16786e-015 -3.97569e-016 -9.84184 -6.43649 -178.365 -18.9103 -1.59028e-015 -3.97569e-016 14.4645 -0.904346 1.756 90 1.80149e-016 7.95139e-016 
260.047 89.4697 43.1225 169.532 -83.5727 78.2896 -0.866284 -0.164623 -0.809682 -1.7402 -0.314733 -1.62861 -1.7402 -0.314733 -1.62862 -8.30748e-012 -9.0191e-006 -5.27751e-005 11.3239 0.133811 0.357718 178.638 -16.4986 -94.7871 -10.4578 -63.352 6.2293 -3.50958 0 3.97569e-016 -39.5157 -19.2577 -20.6917 178.319 7.76485 102.254 79.7403 66.8572 -79.786 -4.63934 -3.97569e-016 -1.59028e-015 -34.9936 10.3232 13.3741 -11.3246 5.13585 -177.716 -20.6726 -1.59028e-015 -0 16.5462 3.12988 -6.22483 90 -4.09993e-016 1.19271e-015 -9.9047 -6.40116 -178.351 -18.8766 7.95139e-016 1.98785e-016 14.4299 -0.913438 1.77431 90 5.59082e-017 7.95139e-016 
260.058 89.4698 43.1761 169.809 -83.5439 78.5486 -0.861497 -0.160139 -0.810187 -1.73129 -0.308388 -1.62253 -1.73129 -0.308388 -1.62254 -8.30748e-012 -9.0191e-006 -5.27751e-005 11.2684 0.105798 0.341748 178.639 -16.4863 -94.7856 -10.4251 -63.4634 6.20486 -3.5275 -3.18055e-015 -4.96962e-017 -39.5874 -19.1712 -20.6708 178.326 7.724 102.267 79.7628 66.864 -79.7751 -4.67522 3.97569e-016 3.18055e-015 -34.8218 10.2779 13.3192 -11.4355 5.20256 -177.669 -20.7578 1.59028e-015 3.97569e-016 16.6022 3.17809 -6.32239 90 2.60905e-016 -3.97569e-016 -9.97458 -6.39764 -178.328 -18.8777 0 5.96354e-016 14.4092 -0.926379 1.80044 90 8.57259e-016 7.95139e-016 
